<svg xmlns="http://www.w3.org/2000/svg" xmlns:xlink="http://www.w3.org/1999/xlink" width="500" zoomAndPan="magnify" viewBox="0 0 375 374.999991" height="500" preserveAspectRatio="xMidYMid meet" version="1.0"><defs><clipPath id="c0a4cd3f90"><path d="M 26 19.066406 L 302.832031 19.066406 L 302.832031 353 L 26 353 Z M 26 19.066406 " clip-rule="nonzero"/></clipPath><clipPath id="4f82c9e3d6"><path d="M 229.398438 72 L 373.929688 72 L 373.929688 277 L 229.398438 277 Z M 229.398438 72 " clip-rule="nonzero"/></clipPath><clipPath id="a01111feb8"><path d="M 235.175781 80.066406 L 368.242188 80.066406 L 368.242188 268.191406 L 235.175781 268.191406 Z M 235.175781 80.066406 " clip-rule="nonzero"/></clipPath></defs><g clip-path="url(#c0a4cd3f90)"><path fill="#00bf63" d="M 283.058594 281.699219 C 283.792969 280.96875 283.792969 280.167969 283.792969 280.167969 C 283.792969 280.167969 283.859375 280.96875 283.058594 281.699219 Z M 26.726562 136.003906 L 54.1875 116.945312 L 54.1875 91.015625 L 108.371094 91.015625 L 108.371094 110.878906 L 124.367188 118.476562 L 124.367188 58.160156 L 178.554688 58.160156 L 178.554688 111.546875 L 193.816406 98.546875 L 193.816406 19.234375 L 248.003906 19.234375 L 248.003906 55.09375 L 262.53125 42.894531 L 253.402344 30.699219 L 288.523438 35.296875 L 284.59375 71.089844 L 273.929688 57.359375 L 154.894531 153.535156 L 84.710938 119.210938 L 26.726562 157.332031 Z M 248.003906 95.550781 L 248.003906 200.054688 L 225.875 204.652344 C 217.476562 205.386719 204.480469 206.1875 196.882812 203.121094 C 196.148438 203.121094 194.617188 202.386719 193.816406 202.386719 L 193.816406 139.804688 Z M 178.554688 152 L 178.554688 200.855469 C 175.488281 200.855469 172.421875 200.855469 169.421875 201.589844 L 160.292969 198.523438 C 149.628906 193.921875 135.898438 197.789062 124.433594 202.320312 L 124.433594 155.800781 L 154.960938 171.0625 Z M 108.371094 148.203125 L 108.371094 208.453125 C 103.773438 210.71875 96.175781 210.71875 91.578125 208.453125 L 54.1875 192.457031 L 54.1875 155.800781 L 84.710938 135.9375 Z M 86.246094 300.761719 C 89.308594 304.5625 94.640625 312.226562 84.710938 317.558594 C 74.046875 322.890625 67.914062 315.292969 68.714844 309.160156 C 70.183594 299.296875 81.644531 296.964844 86.246094 300.761719 Z M 113.703125 320.625 C 113.703125 320.625 106.839844 332.820312 101.507812 334.355469 C 96.175781 335.085938 86.976562 332.085938 86.976562 326.753906 C 84.710938 305.359375 119.035156 306.894531 113.703125 320.625 Z M 135.832031 332.085938 C 135.832031 332.085938 125.167969 344.285156 122.835938 345.085938 C 119.769531 345.816406 109.839844 346.617188 107.570312 340.484375 C 106.039062 335.152344 109.839844 331.355469 112.171875 328.289062 C 114.4375 325.222656 122.101562 318.359375 127.433594 319.890625 C 133.5 322.15625 139.628906 326.753906 135.832031 332.085938 Z M 139.628906 332.820312 L 128.964844 344.285156 C 128.964844 344.285156 126.699219 347.351562 128.234375 348.882812 C 129.765625 350.417969 138.164062 355.75 146.5625 349.617188 C 154.160156 342.75 149.5625 330.554688 139.628906 332.820312 Z M 302.1875 195.523438 L 226.609375 210.785156 C 226.609375 210.785156 206.746094 213.851562 194.550781 209.253906 C 182.351562 204.652344 167.824219 207.71875 153.359375 212.320312 C 138.832031 217.652344 125.101562 219.183594 117.503906 232.179688 C 109.105469 244.378906 100.707031 255.042969 107.570312 258.105469 C 113.703125 261.90625 126.632812 259.640625 135.832031 250.507812 C 144.960938 241.378906 149.5625 239.84375 152.628906 239.84375 C 155.691406 239.84375 171.6875 236.046875 178.554688 244.445312 C 184.683594 253.574219 230.40625 300.164062 230.40625 300.164062 C 230.40625 300.164062 244.9375 289.5 252.535156 286.433594 C 255.601562 285.699219 268.53125 282.632812 284.59375 278.835938 C 296.054688 258.242188 302.121094 233.847656 302.121094 207.851562 C 302.1875 203.855469 302.1875 199.320312 302.1875 195.523438 Z M 280.792969 286.300781 C 280.792969 285.566406 280.792969 285.566406 281.527344 284.765625 C 280.792969 285.5 280.792969 285.5 280.792969 286.300781 Z M 281.527344 284.765625 C 281.527344 284.035156 282.261719 284.035156 282.261719 283.234375 C 282.328125 284.035156 281.527344 284.035156 281.527344 284.765625 Z M 281.527344 284.765625 " fill-opacity="1" fill-rule="nonzero"/></g><path fill="#00bf63" d="M 3.066406 176.394531 L 88.511719 214.519531 C 88.511719 214.519531 100.707031 219.117188 112.171875 213.785156 C 122.101562 209.984375 144.230469 199.253906 157.957031 204.652344 C 155.691406 204.652344 153.359375 205.386719 151.09375 206.1875 C 135.832031 211.519531 121.367188 213.050781 111.4375 228.316406 C 108.371094 233.648438 105.304688 238.246094 102.308594 243.578125 C 100.039062 248.175781 96.976562 254.242188 100.039062 259.574219 C 100.773438 261.839844 103.105469 263.371094 104.640625 264.171875 C 116.101562 269.503906 132.097656 263.4375 140.496094 255.042969 C 142.761719 251.976562 148.894531 246.644531 153.492188 246.644531 C 158.09375 245.910156 169.488281 243.578125 173.355469 248.175781 C 176.421875 252.773438 180.21875 256.574219 183.285156 259.640625 C 188.617188 265.773438 193.949219 271.105469 198.546875 276.433594 C 207.679688 286.367188 216.875 295.496094 225.273438 304.695312 L 228.339844 307.761719 C 232.140625 310.027344 224.542969 325.289062 213.078125 315.359375 L 183.351562 284.101562 C 183.351562 284.101562 181.085938 281.835938 179.554688 282.566406 C 178.019531 284.101562 179.554688 284.832031 181.085938 286.367188 L 206.28125 313.824219 C 206.28125 313.824219 212.410156 319.957031 206.28125 327.554688 C 200.949219 335.152344 193.28125 331.355469 188.75 327.554688 L 168.621094 307.628906 C 168.621094 307.628906 167.089844 306.09375 165.558594 306.894531 C 165.558594 306.894531 164.023438 308.425781 166.289062 309.960938 L 186.152344 329.820312 C 186.152344 329.820312 189.949219 335.152344 186.152344 340.484375 C 186.152344 340.484375 180.820312 347.351562 173.15625 341.21875 C 164.757812 335.085938 151.027344 320.625 151.027344 320.625 C 151.027344 320.625 147.960938 318.359375 147.226562 319.089844 C 145.695312 319.824219 147.960938 321.355469 148.761719 322.15625 C 149.5625 322.957031 169.355469 342.019531 169.355469 342.019531 C 169.355469 342.019531 170.890625 344.285156 167.824219 346.617188 C 165.558594 348.148438 158.691406 349.683594 155.625 347.351562 C 159.425781 338.21875 153.359375 326.753906 142.628906 325.957031 C 141.894531 321.355469 138.03125 317.558594 133.5 315.292969 C 131.964844 314.558594 131.234375 314.558594 129.699219 313.757812 C 127.433594 313.027344 124.367188 313.027344 121.300781 313.757812 L 119.769531 313.027344 L 119.035156 313.027344 C 115.96875 305.429688 106.039062 303.09375 97.640625 304.628906 L 95.375 303.09375 C 94.640625 300.828125 93.109375 298.496094 90.777344 296.230469 C 86.175781 292.429688 80.113281 291.632812 73.980469 293.964844 C 71.714844 294.699219 70.183594 296.230469 68.648438 297.761719 L 12.929688 268.769531 C 4.597656 249.640625 0 229.046875 0 207.71875 C 0 196.988281 1.53125 186.324219 3.066406 176.394531 Z M 3.066406 176.394531 " fill-opacity="1" fill-rule="nonzero"/><g clip-path="url(#4f82c9e3d6)"><path fill="#2f2f2f" d="M 302.183594 72.457031 C 261.746094 72.457031 229.398438 105.230469 229.398438 145.242188 C 229.398438 185.253906 302.183594 276.769531 302.183594 276.769531 C 302.183594 276.769531 374.972656 185.679688 374.972656 145.242188 C 374.972656 104.804688 342.621094 72.457031 302.183594 72.457031 Z M 302.183594 199.726562 C 271.960938 199.726562 247.699219 175.464844 247.699219 145.242188 C 247.699219 115.019531 271.960938 90.757812 302.183594 90.757812 C 332.40625 90.757812 356.667969 115.019531 356.667969 145.242188 C 356.667969 175.464844 332.40625 199.726562 302.183594 199.726562 Z M 302.183594 199.726562 " fill-opacity="1" fill-rule="nonzero"/></g><path fill="#2f2f2f" d="M 306.441406 139.285156 L 306.015625 122.257812 C 310.695312 123.109375 314.953125 124.8125 318.785156 127.363281 L 324.742188 118.851562 C 318.785156 115.019531 312.398438 112.46875 306.015625 112.042969 L 306.015625 107.785156 L 300.054688 107.785156 L 300.054688 112.46875 C 294.097656 112.894531 289.414062 114.59375 286.007812 118 C 282.179688 121.40625 280.476562 125.664062 280.476562 130.769531 C 280.476562 135.878906 282.179688 140.132812 285.15625 142.6875 C 288.136719 145.242188 293.246094 147.371094 300.054688 149.074219 L 300.054688 166.523438 C 294.523438 165.675781 289.414062 163.121094 284.304688 158.863281 L 277.496094 166.523438 C 283.882812 172.058594 291.542969 175.464844 299.628906 176.316406 L 299.628906 183.125 L 305.589844 183.125 L 305.589844 176.742188 C 311.546875 176.316406 316.65625 174.613281 320.488281 171.207031 C 324.316406 167.800781 326.019531 163.546875 326.019531 158.4375 C 326.019531 153.328125 324.316406 149.074219 321.339844 146.519531 C 318.359375 143.113281 313.25 140.984375 306.441406 139.285156 Z M 300.054688 137.582031 C 296.652344 136.304688 294.523438 135.453125 293.246094 134.175781 C 291.96875 132.898438 291.542969 131.195312 291.542969 129.492188 C 291.542969 127.363281 292.394531 125.664062 293.671875 124.386719 C 295.375 123.109375 297.5 122.257812 300.054688 121.832031 Z M 312.824219 163.972656 C 311.121094 165.25 308.996094 166.097656 306.015625 166.523438 L 306.015625 150.351562 C 309.847656 151.628906 311.972656 152.480469 313.25 153.753906 C 314.527344 155.03125 315.378906 156.734375 315.378906 158.863281 C 315.378906 160.992188 314.527344 162.695312 312.824219 163.972656 Z M 312.824219 163.972656 " fill-opacity="1" fill-rule="nonzero"/><g clip-path="url(#a01111feb8)"><path fill="#00bf63" d="M 302.191406 80.554688 C 264.960938 80.554688 235.175781 110.734375 235.175781 147.570312 C 235.175781 184.410156 302.191406 268.667969 302.191406 268.667969 C 302.191406 268.667969 369.207031 184.800781 369.207031 147.570312 C 369.207031 110.339844 339.421875 80.554688 302.191406 80.554688 Z M 302.191406 197.734375 C 274.367188 197.734375 252.03125 175.398438 252.03125 147.570312 C 252.03125 119.746094 274.367188 97.40625 302.191406 97.40625 C 330.019531 97.40625 352.355469 119.746094 352.355469 147.570312 C 352.355469 175.398438 330.019531 197.734375 302.191406 197.734375 Z M 302.191406 197.734375 " fill-opacity="1" fill-rule="nonzero"/></g><path fill="#00bf63" d="M 306.113281 142.085938 L 305.71875 126.410156 C 310.03125 127.191406 313.949219 128.761719 317.476562 131.113281 L 322.964844 123.273438 C 317.476562 119.746094 311.597656 117.394531 305.71875 117.003906 L 305.71875 113.085938 L 300.234375 113.085938 L 300.234375 117.394531 C 294.746094 117.785156 290.4375 119.355469 287.300781 122.488281 C 283.773438 125.625 282.207031 129.542969 282.207031 134.246094 C 282.207031 138.949219 283.773438 142.867188 286.515625 145.21875 C 289.261719 147.570312 293.964844 149.53125 300.234375 151.097656 L 300.234375 167.167969 C 295.140625 166.382812 290.4375 164.03125 285.734375 160.113281 L 279.460938 167.167969 C 285.339844 172.261719 292.394531 175.398438 299.839844 176.179688 L 299.839844 182.449219 L 305.328125 182.449219 L 305.328125 176.574219 C 310.816406 176.179688 315.519531 174.613281 319.042969 171.476562 C 322.570312 168.34375 324.140625 164.421875 324.140625 159.722656 C 324.140625 155.019531 322.570312 151.097656 319.828125 148.746094 C 317.085938 145.613281 312.382812 143.652344 306.113281 142.085938 Z M 300.234375 140.515625 C 297.097656 139.339844 295.140625 138.558594 293.964844 137.382812 C 292.789062 136.207031 292.394531 134.640625 292.394531 133.070312 C 292.394531 131.113281 293.179688 129.542969 294.355469 128.367188 C 295.921875 127.191406 297.882812 126.410156 300.234375 126.015625 Z M 311.992188 164.816406 C 310.421875 165.992188 308.464844 166.773438 305.71875 167.167969 L 305.71875 152.273438 C 309.246094 153.449219 311.207031 154.234375 312.382812 155.410156 C 313.558594 156.585938 314.34375 158.152344 314.34375 160.113281 C 314.34375 162.070312 313.558594 163.640625 311.992188 164.816406 Z M 311.992188 164.816406 " fill-opacity="1" fill-rule="nonzero"/></svg>